# xmcd
#
# Track frame offsets:
#	150
#	13450
#	25380
#	36325
#	45310
#	57040
#	71240
#	81372
#	95265
#	109565
#	119632
#	131240
#	143325
#	156520
#	168942
#	181980
#
# Disc length: 2586 seconds
#
# Revision: 1
# Processed by: cddbd v1.5.2PL0 Copyright (c) Steve Scherf et al.
# Submitted via: audiograbber 1.83.01
#
DISCID=de0a1810
DTITLE=Various Artist - 50 ans de musette vol.2
DYEAR=1900
DGENRE=Instrumental
TTITLE0=Rene Ninforge - Buvons, Rions, Chantons
TTITLE1=Hector Delfosse - La des canardes
TTITLE2=Pol Preat - Ca gaze
TTITLE3=Albert Hennebel - Les doigts volants
TTITLE4=Rene Ninforge - Vina del mar
TTITLE5=Andre Loppe - Accordeon en fete
TTITLE6=Hector Delfosse - Fleur de musette
TTITLE7=Rene Ninforge - Valse perlee
TTITLE8=Andre Loppe - Bon retour
TTITLE9=Hector Delfosse - Bue Tango
TTITLE10=Pol Preat - Valse du p'tit popol
TTITLE11=Albert Hennebel - Champagne
TTITLE12=Rene Ninforge - La parade des allumettes
TTITLE13=Hector Delfosse - La Paloma
TTITLE14=Andre Loppe - Du bon musette
TTITLE15=Pol Preat - El gato montes
EXTD=amc 55.232
EXTT0=
EXTT1=
EXTT2=
EXTT3=
EXTT4=
EXTT5=
EXTT6=
EXTT7=
EXTT8=
EXTT9=
EXTT10=
EXTT11=
EXTT12=
EXTT13=
EXTT14=
EXTT15=
PLAYORDER=
